<svg width="22" height="22" viewBox="0 0 22 22" fill="none" xmlns="http://www.w3.org/2000/svg">
<path fill-rule="evenodd" clip-rule="evenodd" d="M7.15917 1.83325H14.8418C17.6733 1.83325 19.25 3.46492 19.25 6.26075V15.7299C19.25 18.5716 17.6733 20.1666 14.8418 20.1666H7.15917C4.3725 20.1666 2.75 18.5716 2.75 15.7299V6.26075C2.75 3.46492 4.3725 1.83325 7.15917 1.83325ZM7.40667 6.10492V6.09575H10.1466C10.5417 6.09575 10.8625 6.41659 10.8625 6.80984C10.8625 7.21409 10.5417 7.53492 10.1466 7.53492H7.40667C7.01159 7.53492 6.69167 7.21409 6.69167 6.81992C6.69167 6.42575 7.01159 6.10492 7.40667 6.10492ZM7.40667 11.6783H14.5933C14.9875 11.6783 15.3083 11.3574 15.3083 10.9633C15.3083 10.5691 14.9875 10.2473 14.5933 10.2473H7.40667C7.01159 10.2473 6.69167 10.5691 6.69167 10.9633C6.69167 11.3574 7.01159 11.6783 7.40667 11.6783ZM7.40667 15.8674H14.5933C14.9591 15.8308 15.235 15.5182 15.235 15.1524C15.235 14.7766 14.9591 14.4649 14.5933 14.4283H7.40667C7.13167 14.4008 6.86584 14.5291 6.71917 14.7674C6.5725 14.9966 6.5725 15.2991 6.71917 15.5374C6.86584 15.7666 7.13167 15.9041 7.40667 15.8674Z" fill="#8A87A7"/>
</svg>
