<svg width="18" height="18" viewBox="0 0 18 18" fill="none" xmlns="http://www.w3.org/2000/svg">
<path fill-rule="evenodd" clip-rule="evenodd" d="M2.89654 0.818115H5.662C6.81563 0.818115 7.74018 1.75902 7.74018 2.91348V5.70266C7.74018 6.86448 6.81563 7.79721 5.662 7.79721H2.89654C1.75109 7.79721 0.818359 6.86448 0.818359 5.70266V2.91348C0.818359 1.75902 1.75109 0.818115 2.89654 0.818115ZM2.89654 10.2024H5.662C6.81563 10.2024 7.74018 11.136 7.74018 12.2978V15.087C7.74018 16.2406 6.81563 17.1815 5.662 17.1815H2.89654C1.75109 17.1815 0.818359 16.2406 0.818359 15.087V12.2978C0.818359 11.136 1.75109 10.2024 2.89654 10.2024ZM15.1039 0.818115H12.3384C11.1848 0.818115 10.2603 1.75902 10.2603 2.91348V5.70266C10.2603 6.86448 11.1848 7.79721 12.3384 7.79721H15.1039C16.2494 7.79721 17.1821 6.86448 17.1821 5.70266V2.91348C17.1821 1.75902 16.2494 0.818115 15.1039 0.818115ZM12.3384 10.2024H15.1039C16.2494 10.2024 17.1821 11.136 17.1821 12.2978V15.087C17.1821 16.2406 16.2494 17.1815 15.1039 17.1815H12.3384C11.1848 17.1815 10.2603 16.2406 10.2603 15.087V12.2978C10.2603 11.136 11.1848 10.2024 12.3384 10.2024Z" fill="#8A87A7"/>
</svg>
